# Blender 4.3.2
# www.blender.org
mtllib asteroid.mtl
o asteroid
v -0.000010 -16.500019 -28.219402
v -23.879068 7.645504 -22.496599
v 9.120805 16.931456 -26.803761
v 29.516083 -7.379065 -15.527595
v 9.120811 -31.689734 -4.251609
v -23.879065 -22.403767 -8.558733
v -1.953075 32.262962 -15.311325
v 28.932484 25.507654 1.129215
v 23.879065 -7.645504 11.977391
v -8.206912 -19.897364 27.587837
v -29.516087 7.379064 5.008383
v 2.487933 20.340662 27.329382
v 5.361028 0.253487 -31.418318
v -14.035669 -5.204610 -28.886654
v -10.409140 11.603988 -35.344196
v -28.071407 -8.674651 -17.330385
v -14.035666 -22.867006 -20.694239
v 17.349087 -14.035769 -24.790400
v 22.710260 5.614691 -23.958290
v 5.361032 -28.325115 -18.162598
v 22.710264 -22.964003 -10.702525
v -8.674681 -31.795322 -6.606297
v -32.168781 14.608126 -14.690805
v -30.148989 -5.463358 -0.516057
v -0.000007 28.578871 -18.515451
v -19.396946 23.120787 -15.983801
v 31.384930 8.831231 -9.355842
v 19.396936 23.120787 -15.983809
v 19.396942 -23.120789 5.464590
v 31.384933 -8.831232 -1.163391
v -25.244040 -27.453054 9.429762
v 0.000003 -28.578873 7.996239
v -22.710266 22.964003 0.183317
v 8.674678 31.795322 -3.912911
v 28.071405 8.674651 6.811176
v 8.674684 -14.445961 17.535353
v -21.782480 -11.367418 21.216883
v -5.361034 28.325113 7.643385
v -17.349091 14.035769 14.271190
v 14.035663 22.867008 10.175030
v 14.035666 5.204613 18.367445
v -4.280589 -3.987203 33.955799
v -24.863684 14.558018 8.515983
v -22.710266 22.964003 0.183317
v -17.349091 14.035769 14.271190
vn -0.0830 -0.1612 -0.9834
vn -0.0834 -0.1634 -0.9830
vn -0.6202 -0.0874 -0.7795
vn -0.0920 -0.6690 -0.7376
vn -0.7040 -0.0435 -0.7088
vn 0.8452 0.1023 -0.5246
vn 0.5734 -0.8119 0.1096
vn -0.3818 0.4503 -0.8071
vn 0.2960 -0.8497 0.4363
vn -0.9483 -0.2796 -0.1504
vn -0.3365 0.9352 0.1105
vn 0.5605 -0.4232 0.7118
vn 0.3968 -0.1466 0.9061
vn 0.7822 0.2621 0.5652
vn 0.5408 0.3539 0.7631
vn 0.4667 0.2613 0.8449
vn 0.1799 0.8604 0.4768
vn -0.3430 0.2642 -0.9014
vn -0.3061 -0.5096 -0.8041
vn -0.0000 1.0000 -0.0000
vn 0.5265 -0.6734 0.5190
vn 0.2751 -0.6481 0.7101
vn 0.2961 0.8806 -0.3699
vn -0.4599 0.8838 -0.0857
vn -0.5589 0.8224 -0.1066
vn -0.0183 -0.9169 0.3987
vn -0.0302 -0.9722 0.2321
vn -0.0294 -0.9721 0.2328
vn 0.8857 -0.4361 -0.1593
vn -0.6837 0.4423 -0.5805
vn -0.9914 -0.0074 0.1308
vn -0.9446 -0.3235 -0.0549
vn 0.4016 -0.8594 -0.3164
vn 0.3523 0.1754 -0.9193
vn 0.3542 0.1744 -0.9188
vn 0.3542 0.1717 -0.9193
vn -0.0244 -0.3552 -0.9345
vn -0.0223 -0.3543 -0.9349
vn -0.3060 0.5096 -0.8041
vn -0.3430 -0.2642 -0.9014
vn 0.2219 -0.2509 -0.9422
vn 0.2235 -0.2524 -0.9415
vn 0.2365 -0.5650 -0.7904
vn 0.1475 0.6473 -0.7478
vn 0.1496 0.6483 -0.7465
vn -0.4805 -0.8342 -0.2706
vn -0.4810 -0.8342 -0.2698
vn 0.2797 0.6946 -0.6628
vn 0.2816 0.6929 -0.6638
vn 0.9889 -0.0626 -0.1350
vn 0.6202 0.0874 0.7795
vn -0.5182 -0.2045 0.8304
vn 0.6937 -0.2183 0.6864
vn -0.1185 0.9814 0.1508
vn -0.9374 -0.0976 0.3343
vn -0.9366 -0.0523 0.3464
vn -0.5820 -0.3955 0.7106
vn 0.8641 -0.0639 0.4993
vn 0.9752 0.0931 0.2008
vn 0.3525 0.8797 -0.3191
vn 0.7674 0.4184 -0.4859
vn 0.7536 0.3852 -0.5326
vn 0.5161 0.4340 -0.7384
vn 0.5174 0.4356 -0.7366
vn -0.2588 0.5521 -0.7926
vn -0.2895 0.7576 -0.5851
vn -0.4614 -0.8182 -0.3430
vn -0.4623 -0.8177 -0.3428
vn 0.0381 -0.9689 -0.2446
vn 0.0387 -0.9686 -0.2455
vn 0.4594 -0.6608 -0.5936
vn 0.6484 -0.1453 -0.7473
vn -0.5408 -0.3539 -0.7631
vn -0.2834 -0.4035 -0.8700
vn -0.4071 0.6935 0.5944
vn -0.6078 0.0059 0.7941
vn 0.2318 -0.3772 -0.8967
vn 0.1790 0.6987 -0.6927
vn 0.7295 0.3992 0.5554
vn 0.7789 -0.2039 0.5931
vn -0.8641 0.4482 0.2288
vn 0.1450 0.8598 0.4897
vn -0.6765 0.3017 0.6718
vn -0.5901 0.3609 0.7222
vn -0.6411 0.3045 0.7044
vn 0.6385 0.0318 0.7690
vn 0.2244 0.9309 0.2881
vn -0.5408 0.6820 0.4923
vn -0.4594 0.6608 0.5936
vn 0.4781 -0.4547 0.7515
vn 0.9794 0.0177 0.2009
vn 0.5384 0.6971 -0.4734
vn -0.8446 0.4558 0.2810
vn -0.0234 -0.9732 0.2288
vn -0.0245 -0.9731 0.2289
vn 0.7694 -0.4239 0.4778
vn 0.7912 -0.5912 0.1564
vn -0.9825 -0.1627 -0.0903
vn -0.1799 -0.8604 -0.4768
vn -0.1805 -0.8599 -0.4776
vn 0.6828 -0.4711 -0.5584
vn 0.4132 -0.0743 -0.9076
vn 0.4151 -0.0734 -0.9068
vn 0.3419 0.1805 -0.9222
vn 0.3441 0.1770 -0.9221
vn 0.3417 0.1783 -0.9228
vn -0.6659 -0.5353 -0.5197
vn -0.6615 -0.1403 -0.7367
s 0
usemtl asteroid_grey_highlight
f 1//1 14//1 13//2
f 2//3 14//3 16//3
f 1//4 20//4 17//4
f 2//5 16//5 23//5
f 4//6 19//6 27//6
f 5//7 21//7 29//7
f 2//8 23//8 26//8
f 5//9 29//9 32//9
f 6//10 31//10 24//10
f 7//11 33//11 38//11
f 10//12 36//12 42//12
f 36//13 9//13 41//13
f 41//14 40//14 12//14
f 41//15 35//15 40//15
f 35//16 8//16 40//16
f 40//17 34//17 38//17
f 39//18 44//19 45//20
f 32//21 36//21 10//21
f 32//22 29//22 36//22
f 28//23 25//23 34//23
f 26//24 33//24 7//24
f 26//25 23//25 33//25
f 31//26 32//26 10//26
f 31//27 22//28 32//27
f 21//29 4//29 30//29
f 15//30 2//30 26//30
f 23//31 24//31 11//31
f 16//32 6//32 24//32
f 20//33 21//33 5//33
f 13//34 15//35 3//36
f 13//37 14//38 15//38
f 39//39 33//20 44//40
usemtl asteroid_grey
f 1//41 13//42 18//41
f 1//43 18//43 20//43
f 3//44 15//45 25//45
f 6//46 22//47 31//46
f 3//48 25//49 28//49
f 4//50 27//50 30//50
f 9//51 35//51 41//51
f 37//52 10//52 42//52
f 42//53 36//53 41//53
f 34//54 7//54 38//54
f 24//55 37//55 11//55
f 24//56 31//56 37//56
f 31//57 10//57 37//57
f 30//58 35//58 9//58
f 30//59 27//59 35//59
f 28//60 34//60 8//60
f 27//61 28//61 8//61
f 27//62 19//62 28//62
f 19//63 3//64 28//63
f 25//65 26//65 7//65
f 25//66 15//66 26//66
f 17//67 22//68 6//67
f 20//69 5//69 22//70
f 20//71 18//71 21//71
f 18//72 19//72 4//72
f 16//73 14//73 17//73
f 14//74 1//74 17//74
f 44//75 43//75 45//75
f 11//76 45//76 43//76
f 33//77 43//78 44//20
f 11//79 39//20 45//80
f 33//81 11//81 43//81
f 39//85 37//85 42//85
usemtl asteroid_grey_dark
f 8//82 34//82 40//82
f 11//83 37//83 39//83
f 39//84 42//84 12//84
f 42//86 41//86 12//86
f 40//87 38//87 12//87
f 38//88 39//88 12//88
f 38//89 33//89 39//89
f 29//90 9//90 36//90
f 27//91 8//91 35//91
f 25//92 7//92 34//92
f 23//93 11//93 33//93
f 22//94 5//95 32//95
f 29//96 30//96 9//96
f 29//97 21//97 30//97
f 23//98 16//98 24//98
f 17//99 20//99 22//100
f 18//101 4//101 21//101
f 18//102 13//103 19//102
f 13//104 3//105 19//106
f 16//107 17//107 6//107
f 14//108 2//108 15//108
