# Blender 4.3.2
# www.blender.org
mtllib saucer.mtl
o saucer
v 0.000002 6.578780 -3.623785
v 0.000001 2.908293 -10.054289
v -2.130008 6.578781 -2.931703
v -5.909762 2.908295 -8.134092
v -3.446424 6.578781 -1.119813
v -9.562196 2.908325 -3.106947
v -3.446424 6.578781 1.119811
v -9.562196 2.908324 3.106944
v -2.130008 6.578780 2.931709
v -5.909762 2.908323 8.134089
v 0.000002 6.578779 3.623791
v 0.000001 2.908320 10.054284
v 2.130012 6.578779 2.931709
v 5.909764 2.908319 8.134089
v 3.446429 6.578778 1.119811
v 9.562198 2.908318 3.106944
v 3.446429 6.578779 -1.119813
v 9.562198 2.908319 -3.106947
v 2.130012 6.578779 -2.931703
v 5.909764 2.908291 -8.134092
v -5.909762 0.784535 -8.134092
v 0.000000 0.784533 -10.054289
v -9.562197 0.784535 -3.106948
v -9.562197 0.784534 3.106944
v -5.909762 0.784547 8.134089
v 0.000000 0.784545 10.054284
v 5.909763 0.784543 8.134089
v 9.562197 0.784528 3.106944
v 9.562197 0.784529 -3.106948
v 5.909763 0.784531 -8.134092
v -2.853284 -1.221371 -3.927214
v -0.000000 -1.221372 -4.854306
v -4.616713 -1.221370 -1.500060
v -4.616713 -1.221371 1.500063
v -2.853284 -1.221372 3.927217
v -0.000000 -1.221373 4.854302
v 2.853283 -1.221374 3.927217
v 4.616712 -1.221374 1.500063
v 4.616712 -1.221374 -1.500060
v 2.853283 -1.221373 -3.927214
v -2.074441 -4.090323 -2.855221
v -0.000001 -4.090323 -3.529247
v -3.356514 -4.090322 -1.090601
v -3.356514 -4.090323 1.090595
v -2.074441 -4.090323 2.855223
v -0.000001 -4.090324 3.529249
v 2.074439 -4.090325 2.855223
v 3.356511 -4.090325 1.090595
v 3.356511 -4.090325 -1.090601
v 2.074439 -4.090324 -2.855221
v -0.489215 -4.960560 -0.673340
v -0.000002 -4.960560 -0.832295
v -0.791560 -4.960560 -0.257192
v -0.791560 -4.960560 0.257194
v -0.489215 -4.960560 0.673342
v -0.000002 -4.960560 0.832297
v 0.489212 -4.960561 0.673342
v 0.791557 -4.960561 0.257194
v 0.791557 -4.960560 -0.257192
v 0.489212 -4.960560 -0.673340
vn -0.1590 0.8574 -0.4894
vn -0.4163 0.8574 -0.3025
vn -0.5146 0.8574 -0.0000
vn -0.4163 0.8574 0.3025
vn -0.1590 0.8574 0.4894
vn 0.1590 0.8574 0.4894
vn 0.4163 0.8574 0.3025
vn 0.5146 0.8574 -0.0000
vn 0.8090 -0.0000 0.5878
vn 0.4163 0.8574 -0.3025
vn 0.1590 0.8574 -0.4894
vn -0.0000 1.0000 -0.0000
vn 0.3759 -0.9267 -0.0000
vn 0.3090 -0.0000 0.9511
vn -0.3090 -0.0000 0.9511
vn -0.8090 -0.0000 0.5878
vn -0.3090 -0.0000 -0.9511
vn -1.0000 -0.0000 -0.0000
vn -0.8090 -0.0000 -0.5878
vn 0.3090 -0.0000 -0.9511
vn 0.8090 -0.0000 -0.5878
vn 1.0000 -0.0000 -0.0000
vn -0.3041 -0.9267 -0.2209
vn 0.1161 -0.9267 0.3575
vn 0.1161 -0.9267 -0.3575
vn -0.3041 -0.9267 0.2209
vn -0.2829 -0.4022 0.8708
vn -0.2599 -0.9470 -0.1889
vn -0.7407 -0.4022 -0.5382
vn 0.7407 -0.4022 -0.5382
vn 0.2829 -0.4022 0.8708
vn -0.9156 -0.4022 -0.0000
vn 0.2829 -0.4022 -0.8708
vn 0.7407 -0.4022 0.5382
vn -0.7407 -0.4022 0.5382
vn -0.2829 -0.4022 -0.8708
vn 0.9156 -0.4022 -0.0000
vn -0.0000 -1.0000 -0.0000
vn 0.2599 -0.9470 -0.1888
vn 0.0993 -0.9470 0.3056
vn -0.3213 -0.9470 -0.0000
vn 0.0993 -0.9470 -0.3056
vn 0.2599 -0.9470 0.1888
vn -0.2599 -0.9470 0.1888
vn -0.0993 -0.9470 -0.3056
vn 0.3213 -0.9470 -0.0000
vn -0.0993 -0.9470 0.3056
vn -0.2599 -0.9470 -0.1888
vn 0.2599 -0.9470 -0.1889
vn -0.1161 -0.9267 0.3575
vn 0.3041 -0.9267 -0.2209
vn -0.3759 -0.9267 -0.0000
vn 0.3041 -0.9267 0.2209
vn -0.1161 -0.9267 -0.3575
s 0
usemtl saucer_high
f 2//1 3//1 1//1
f 3//2 6//2 5//2
f 6//3 7//3 5//3
f 8//4 9//4 7//4
f 10//5 11//5 9//5
f 11//6 14//6 13//6
f 13//7 16//7 15//7
f 16//8 17//8 15//8
f 18//10 19//10 17//10
f 19//11 2//11 1//11
f 7//12 15//12 19//12
f 28//13 39//13 29//13
f 12//14 27//14 14//14
f 8//16 25//16 10//16
f 4//19 23//19 6//19
f 20//20 22//20 2//20
f 16//22 29//22 18//22
f 21//23 33//23 23//23
f 26//24 37//24 27//24
f 30//25 32//25 22//25
f 25//26 34//26 35//26
f 2//1 4//1 3//1
f 3//2 4//2 6//2
f 6//3 8//3 7//3
f 8//4 10//4 9//4
f 10//5 12//5 11//5
f 11//6 12//6 14//6
f 13//7 14//7 16//7
f 16//8 18//8 17//8
f 18//10 20//10 19//10
f 19//11 20//11 2//11
f 19//12 1//12 3//12
f 3//12 5//12 7//12
f 7//12 9//12 11//12
f 11//12 13//12 15//12
f 15//12 17//12 19//12
f 19//12 3//12 7//12
f 7//12 11//12 15//12
f 28//13 38//13 39//13
f 12//14 26//14 27//14
f 8//16 24//16 25//16
f 4//19 21//19 23//19
f 20//20 30//20 22//20
f 16//22 28//22 29//22
f 21//23 31//23 33//23
f 26//24 36//24 37//24
f 30//25 40//25 32//25
f 25//26 24//26 34//26
usemtl saucer_glass
f 35//27 46//27 36//27
f 33//29 41//29 43//29
f 39//30 50//30 40//30
f 37//31 46//31 47//31
f 34//32 43//32 44//32
f 32//33 50//33 42//33
f 38//34 47//34 48//34
f 34//35 45//35 35//35
f 32//36 41//36 31//36
f 38//37 49//37 39//37
f 35//27 45//27 46//27
f 33//29 31//29 41//29
f 39//30 49//30 50//30
f 37//31 36//31 46//31
f 34//32 33//32 43//32
f 32//33 40//33 50//33
f 38//34 37//34 47//34
f 34//35 44//35 45//35
f 32//36 42//36 41//36
f 38//37 48//37 49//37
usemtl saucer_base
f 16//9 27//9 28//9
f 10//15 26//15 12//15
f 2//17 21//17 4//17
f 8//18 23//18 24//18
f 20//21 29//21 30//21
f 16//9 14//9 27//9
f 10//15 25//15 26//15
f 2//17 22//17 21//17
f 8//18 6//18 23//18
f 20//21 18//21 29//21
f 41//28 53//28 43//28
f 59//38 55//38 53//38
f 50//39 59//39 60//39
f 47//40 56//40 57//40
f 43//41 54//41 44//41
f 50//42 52//42 42//42
f 47//43 58//43 48//43
f 45//44 54//44 55//44
f 42//45 51//45 41//45
f 49//46 58//46 59//46
f 45//47 56//47 46//47
f 41//48 51//48 53//48
f 53//38 51//38 52//38
f 52//38 60//38 59//38
f 59//38 58//38 57//38
f 57//38 56//38 55//38
f 55//38 54//38 53//38
f 53//38 52//38 59//38
f 59//38 57//38 55//38
f 50//49 49//49 59//49
f 47//40 46//40 56//40
f 43//41 53//41 54//41
f 50//42 60//42 52//42
f 47//43 57//43 58//43
f 45//44 44//44 54//44
f 42//45 52//45 51//45
f 49//46 48//46 58//46
f 45//47 55//47 56//47
f 25//50 36//50 26//50
f 30//51 39//51 40//51
f 24//52 33//52 34//52
f 27//53 38//53 28//53
f 21//54 32//54 31//54
f 25//50 35//50 36//50
f 30//51 29//51 39//51
f 24//52 23//52 33//52
f 27//53 37//53 38//53
f 21//54 22//54 32//54
