# Blender 4.4.3
# www.blender.org
mtllib spaceship_boost.mtl
o boost
v -34.873627 -10.106765 -0.163025
v -11.280631 -2.966994 1.050498
v -34.871075 10.559574 0.487942
v -11.223951 2.499604 1.139109
v -43.282730 -0.461871 -0.647223
v -26.019962 -2.164479 1.019078
v -26.390221 2.047162 1.084036
v -24.588562 14.611948 0.203738
v -19.908401 -4.699245 0.756498
v -20.315876 3.628923 1.048469
v -26.191345 -14.031938 -0.526081
vn 0.0379 -0.0121 0.9992
vn -0.0074 -0.1312 0.9913
vn -0.0836 -0.0153 0.9964
vn -0.0098 0.0601 0.9981
vn 0.0774 0.1064 0.9913
vn -0.0127 -0.1333 0.9910
vn -0.0267 -0.0363 0.9990
vn -0.0984 -0.0240 0.9949
vn 0.0148 -0.0343 0.9993
s 0
usemtl Material.005
f 7//1 6//1 9//1
f 9//2 11//2 2//2
f 2//3 4//3 8//3
f 10//4 3//4 7//4
f 2//5 8//5 10//5
f 6//6 1//6 9//6
f 9//7 2//7 10//7
f 7//8 5//8 6//8
f 9//9 10//9 7//9
