# Blender 4.4.3
# www.blender.org
mtllib spaceship.mtl
o Cube
v -0.428178 8.970535 -0.184720
v -1.729453 3.519612 -0.746102
v -0.428178 8.970535 0.184720
v -1.729453 1.821603 0.746102
v 0.428178 8.970535 -0.184720
v 0.428178 8.970535 0.184720
v -1.799660 -3.772909 -0.776390
v -0.751683 -8.970535 -0.324283
v -0.751683 -8.970535 0.324283
v -1.799660 -2.093294 0.776390
v 0.751683 -8.970535 -0.324283
v 0.751683 -8.970535 0.324283
v 4.690053 2.715770 -1.163581
v 3.261522 5.955647 -1.499567
v 4.690053 2.715770 1.163580
v 3.261522 3.129358 1.499566
v 4.690053 -3.039275 -1.163581
v 3.219382 -6.302403 -1.527659
v 4.690053 -3.039275 1.163580
v 3.219383 -3.451222 1.527658
v 15.032348 0.256262 -0.397919
v 15.032348 0.256262 0.397914
v 15.032348 -0.579766 -0.397919
v 15.032348 -0.579766 0.397914
v -3.791111 1.456977 0.316544
v -3.791111 1.456977 -0.316543
v -3.861319 -1.670577 -0.329393
v -3.861319 -1.670577 0.329394
v -1.773092 1.822204 1.028057
v 0.241065 1.024862 2.383393
v 0.210044 -1.306505 2.388073
v -1.843304 -2.092694 1.058369
v 0.861114 1.185877 2.469824
v 3.217882 3.129959 1.781521
v 3.175739 -3.450622 1.809637
v 0.837640 -1.477594 2.489141
v -6.756249 -6.343716 -0.776389
v -5.708272 -8.398484 -0.324282
v -5.708272 -8.398484 0.324284
v -6.756249 -6.343716 0.776391
v -5.210707 7.977016 -0.184719
v -6.511982 6.796556 -0.746101
v -5.210707 7.977016 0.184721
v -6.511982 6.796556 0.746103
vn -0.0000 0.0783 0.9969
vn -0.9881 0.0165 -0.1530
vn -0.0000 1.0000 -0.0000
vn -0.0000 -0.0867 -0.9962
vn 0.0738 -0.0000 -0.9973
vn -0.6719 0.7407 -0.0000
vn 0.3500 -0.6849 0.6391
vn -0.2375 0.1921 -0.9522
vn 0.2314 0.9729 -0.0000
vn 0.7341 -0.6790 -0.0000
vn -0.1579 0.0041 0.9874
vn -0.1814 -0.1314 0.9746
vn 0.9150 0.4034 -0.0000
vn -0.9997 0.0224 -0.0000
vn 0.2403 -0.0000 -0.9707
vn -0.5661 -0.5442 -0.6192
vn -0.0000 -1.0000 -0.0000
vn -0.5537 0.0164 0.8325
vn -0.2557 -0.9660 -0.0375
vn -0.8908 -0.4543 -0.0000
vn -0.4500 0.5895 0.6708
vn -0.4604 0.8877 -0.0000
vn -0.2035 0.0086 -0.9790
vn 0.0738 -0.0000 0.9973
vn -0.2476 0.9680 -0.0404
vn -0.2009 -0.9796 -0.0000
vn 0.2314 -0.9729 -0.0000
vn 0.3487 0.6821 0.6428
vn -0.2592 0.5860 0.7677
vn -0.2833 -0.5948 0.7523
vn -0.2059 0.0113 0.9785
vn -0.0102 -0.0887 -0.9960
vn 0.9882 -0.0057 0.1530
vn 0.2297 0.0027 0.9733
vn 0.2825 0.0045 0.9592
vn 1.0000 -0.0000 -0.0000
vn -0.1467 0.0028 -0.9892
vn 0.1764 0.2574 -0.9501
vn -0.0169 0.0813 0.9965
vn -0.1147 -0.9934 -0.0000
vn 0.7287 0.6848 -0.0000
vn 0.9117 -0.4109 -0.0000
vn 0.2320 0.0014 -0.9727
vn -0.2098 0.0061 -0.9777
vn -0.2706 0.5983 0.7542
vn -0.2723 -0.5832 0.7653
vn -0.0224 0.1077 -0.9939
vn 0.2195 0.2110 0.9525
vn 0.1287 -0.1501 0.9803
vn -0.2034 0.9791 -0.0000
vn -0.1815 0.1313 0.9746
vn -0.2439 -0.2022 -0.9485
vn 0.7932 -0.4452 0.4155
vn -0.0000 0.1024 -0.9947
vn -0.1402 0.0084 0.9901
vn -0.0000 -0.0656 0.9978
vn -0.5652 -0.8249 -0.0000
vn -0.5459 0.0089 0.8378
vn -0.1742 0.9847 -0.0000
vn -0.5031 0.5867 -0.6346
vn -0.4704 -0.5991 0.6480
vn 0.7635 0.4700 0.4429
vn -0.2102 0.0087 0.9776
vn 0.0886 -0.1708 -0.9813
vn 0.2403 -0.0000 0.9707
vn 0.2786 0.0023 0.9604
vn -0.1519 0.0056 -0.9884
vn -0.0077 -0.0668 0.9977
s 0
usemtl Material
f 6//1 3//1 4//1
f 1//3 3//3 6//3
f 11//4 8//4 7//4
f 13//5 21//5 23//5
f 44//6 43//6 41//6
f 18//7 19//7 20//7
f 5//8 14//8 2//8
f 15//9 22//9 21//9
f 12//10 11//10 18//10
f 12//12 20//12 10//12
f 15//13 13//13 14//13
f 26//14 27//14 28//14
f 13//15 17//15 18//15
f 2//16 4//16 44//16
f 11//17 12//17 9//17
f 37//20 38//20 39//20
f 4//21 2//21 26//21
f 7//22 37//22 40//22
f 7//23 27//23 26//23
f 19//24 24//24 22//24
f 10//26 28//26 27//26
f 17//27 23//27 24//27
f 16//28 15//28 14//28
f 10//31 4//31 25//31
f 7//32 8//32 38//32
f 15//34 16//34 20//34
f 24//36 23//36 21//36
f 14//37 18//37 7//37
f 2//38 42//38 41//38
f 4//39 3//39 43//39
f 9//40 39//40 38//40
f 6//41 14//41 5//41
f 19//42 18//42 17//42
f 13//43 18//43 14//43
f 7//44 26//44 2//44
f 2//47 41//47 1//47
f 4//48 43//48 44//48
f 10//49 40//49 39//49
f 1//50 41//50 43//50
f 6//51 4//51 16//51
f 1//3 6//3 5//3
f 11//52 7//52 18//52
f 13//5 23//5 17//5
f 44//6 41//6 42//6
f 18//53 20//53 12//53
f 5//54 2//54 1//54
f 15//9 21//9 13//9
f 12//56 10//56 9//56
f 26//14 28//14 25//14
f 2//57 44//57 42//57
f 11//17 9//17 8//17
f 37//20 39//20 40//20
f 4//59 26//59 25//59
f 7//60 40//60 10//60
f 19//24 22//24 15//24
f 10//61 27//61 7//61
f 17//27 24//27 19//27
f 16//62 14//62 6//62
f 10//63 25//63 28//63
f 7//64 38//64 37//64
f 15//65 20//65 19//65
f 24//36 21//36 22//36
f 14//67 7//67 2//67
f 9//40 38//40 8//40
f 10//68 39//68 9//68
f 1//50 43//50 3//50
usemtl Material.001
f 10//2 32//2 29//2
f 30//11 31//11 36//11
f 30//18 29//18 32//18
f 20//19 35//19 32//19
f 16//25 4//25 29//25
f 30//29 33//29 34//29
f 35//30 36//30 31//30
f 20//33 16//33 34//33
f 33//35 36//35 35//35
f 30//45 34//45 29//45
f 35//46 31//46 32//46
f 10//2 29//2 4//2
f 30//55 36//55 33//55
f 30//58 32//58 31//58
f 20//19 32//19 10//19
f 16//25 29//25 34//25
f 20//33 34//33 35//33
f 33//66 35//66 34//66
