# Blender 4.3.2
# www.blender.org
mtllib spaceship_boost.mtl
o spaceship_boost
v -11.130598 -6.331809 0.350439
v -11.130598 5.894230 0.350439
v -18.467245 5.894230 0.350439
v -53.428085 4.423899 0.350439
v -32.313881 3.190425 0.350439
v -47.114334 1.878886 0.350439
v -31.031181 1.316797 0.350439
v -50.469116 0.567347 0.350439
v -23.433617 -1.399965 0.350439
v -48.725937 -2.524141 0.350439
v -22.381142 -3.507796 0.350439
v -51.883369 -4.585133 0.350439
v -21.756235 -5.334583 0.350439
v -35.898888 -5.927899 0.350439
vn -0.0000 -0.0000 -1.0000
s 0
usemtl spaceship_boost_blue
f 1//1 11//1 9//1
f 4//1 3//1 5//1
f 3//1 2//1 9//1
f 5//1 3//1 7//1
f 1//1 14//1 13//1
f 13//1 12//1 11//1
f 11//1 10//1 9//1
f 9//1 8//1 7//1
f 7//1 6//1 5//1
f 7//1 3//1 9//1
f 2//1 1//1 9//1
f 1//1 13//1 11//1
